<svg width="37" height="28" viewBox="0 0 37 28" fill="none" xmlns="http://www.w3.org/2000/svg">
<path d="M8.40954 11.1796C7.99821 11.1796 7.60349 11.241 7.21061 11.2969C7.33788 10.8784 7.46884 10.4528 7.67911 10.0704C7.88939 9.51491 8.21771 9.03335 8.54419 8.54818C8.81718 8.02333 9.29859 7.66802 9.65274 7.21892C10.0235 6.78245 10.5289 6.49207 10.9291 6.12954C11.322 5.75079 11.8366 5.56141 12.2461 5.29447C12.674 5.05459 13.0466 4.78946 13.4451 4.66321L14.4392 4.26281L15.3135 3.9075L14.419 0.412109L13.3178 0.671828C12.9655 0.758401 12.5357 0.859403 12.0469 0.980245C11.5471 1.07043 11.014 1.31752 10.4201 1.54297C9.8335 1.79908 9.15472 1.97223 8.5239 2.38345C7.88939 2.77664 7.15712 3.10489 6.51154 3.63155C5.88625 4.17443 5.13185 4.64517 4.5748 5.33596C3.96611 5.98165 3.36481 6.6598 2.89814 7.43175C2.3577 8.16762 1.99065 8.97564 1.6033 9.77463C1.25284 10.5736 0.970631 11.3907 0.740068 12.1843C0.302919 13.775 0.107401 15.2865 0.0317758 16.5796C-0.0309375 17.8746 0.00595269 18.9514 0.0834221 19.7305C0.11109 20.0985 0.162736 20.4556 0.199626 20.7027L0.245739 21.0057L0.293696 20.9949C0.621763 22.4934 1.37698 23.8704 2.47199 24.9667C3.56701 26.0631 4.95706 26.8339 6.48136 27.1899C8.00566 27.546 9.60192 27.4729 11.0855 26.9789C12.569 26.485 13.8793 25.5905 14.8646 24.3988C15.8499 23.2071 16.4701 21.767 16.6534 20.2451C16.8367 18.7232 16.5756 17.1816 15.9003 15.7987C15.2251 14.4158 14.1632 13.2481 12.8376 12.4307C11.5119 11.6133 9.97674 11.1795 8.40954 11.1796ZM28.6991 11.1796C28.2878 11.1796 27.8931 11.241 27.5002 11.2969C27.6275 10.8784 27.7584 10.4528 27.9687 10.0704C28.179 9.51491 28.5073 9.03335 28.8338 8.54818C29.1068 8.02333 29.5882 7.66802 29.9423 7.21892C30.3131 6.78245 30.8185 6.49207 31.2187 6.12954C31.6116 5.75079 32.1262 5.56141 32.5357 5.29447C32.9636 5.05459 33.3362 4.78946 33.7347 4.66321L34.7288 4.26281L35.6031 3.9075L34.7086 0.412109L33.6074 0.671828C33.2551 0.758401 32.8253 0.859403 32.3365 0.980245C31.8367 1.07043 31.3036 1.31752 30.7097 1.54297C30.125 1.80089 29.4443 1.97223 28.8135 2.38526C28.179 2.77844 27.4467 3.1067 26.8011 3.63335C26.1759 4.17624 25.4214 4.64698 24.8644 5.33596C24.2557 5.98165 23.6544 6.6598 23.1878 7.43175C22.6473 8.16762 22.2803 8.97564 21.8929 9.77463C21.5424 10.5736 21.2602 11.3907 21.0297 12.1843C20.5925 13.775 20.397 15.2865 20.3214 16.5796C20.2587 17.8746 20.2956 18.9514 20.373 19.7305C20.4007 20.0985 20.4523 20.4556 20.4892 20.7027L20.5353 21.0057L20.5833 20.9949C20.9114 22.4934 21.6666 23.8704 22.7616 24.9667C23.8566 26.0631 25.2467 26.8339 26.771 27.1899C28.2953 27.546 29.8915 27.4729 31.3751 26.9789C32.8586 26.485 34.1689 25.5905 35.1542 24.3988C36.1395 23.2071 36.7597 21.767 36.943 20.2451C37.1263 18.7232 36.8652 17.1816 36.1899 15.7987C35.5147 14.4158 34.4528 13.2481 33.1272 12.4307C31.8015 11.6133 30.2663 11.1795 28.6991 11.1796Z" fill="#235CF3"/>
</svg>
