<svg width="24" height="25" viewBox="0 0 24 25" fill="none" xmlns="http://www.w3.org/2000/svg">
<g clip-path="url(#clip0_160_55172)">
<path d="M12 10.2324V14.8797H18.4582C18.1746 16.3742 17.3236 17.6397 16.0472 18.4906L19.9417 21.5125C22.2108 19.418 23.5199 16.3416 23.5199 12.6871C23.5199 11.8362 23.4436 11.0179 23.3017 10.2326L12 10.2324Z" fill="#235CF3"/>
<path d="M5.27461 14.6973L4.39625 15.3696L1.28711 17.7914C3.26165 21.7077 7.30862 24.4132 11.9995 24.4132C15.2394 24.4132 17.9557 23.3441 19.9412 21.5115L16.0467 18.4896C14.9776 19.2096 13.614 19.646 11.9995 19.646C8.87951 19.646 6.22868 17.5406 5.27952 14.7042L5.27461 14.6973Z" fill="#235CF3"/>
<path d="M1.28718 7.03516C0.469042 8.64964 0 10.4715 0 12.4133C0 14.355 0.469042 16.1769 1.28718 17.7914C1.28718 17.8022 5.27997 14.6932 5.27997 14.6932C5.03998 13.9732 4.89812 13.2096 4.89812 12.4131C4.89812 11.6167 5.03998 10.8531 5.27997 10.1331L1.28718 7.03516Z" fill="#235CF3"/>
<path d="M11.9997 5.19224C13.767 5.19224 15.3379 5.80313 16.5925 6.98133L20.0288 3.54501C17.9452 1.60323 15.2398 0.414062 11.9997 0.414062C7.30887 0.414062 3.26165 3.1086 1.28711 7.03589L5.27978 10.1341C6.22882 7.29768 8.87976 5.19224 11.9997 5.19224Z" fill="#235CF3"/>
</g>
<defs>
<clipPath id="clip0_160_55172">
<rect width="24" height="24" fill="white" transform="translate(0 0.414062)"/>
</clipPath>
</defs>
</svg>
