<svg width="24" height="25" viewBox="0 0 24 25" fill="none" xmlns="http://www.w3.org/2000/svg">
<g clip-path="url(#clip0_160_55170)">
<path d="M12 2.575C15.2063 2.575 15.5859 2.58906 16.8469 2.64531C18.0188 2.69687 18.6516 2.89375 19.0734 3.05781C19.6313 3.27344 20.0344 3.53594 20.4516 3.95312C20.8734 4.375 21.1313 4.77344 21.3469 5.33125C21.5109 5.75313 21.7078 6.39062 21.7594 7.55781C21.8156 8.82344 21.8297 9.20312 21.8297 12.4047C21.8297 15.6109 21.8156 15.9906 21.7594 17.2516C21.7078 18.4234 21.5109 19.0563 21.3469 19.4781C21.1313 20.0359 20.8687 20.4391 20.4516 20.8563C20.0297 21.2781 19.6313 21.5359 19.0734 21.7516C18.6516 21.9156 18.0141 22.1125 16.8469 22.1641C15.5813 22.2203 15.2016 22.2344 12 22.2344C8.79375 22.2344 8.41406 22.2203 7.15313 22.1641C5.98125 22.1125 5.34844 21.9156 4.92656 21.7516C4.36875 21.5359 3.96563 21.2734 3.54844 20.8563C3.12656 20.4344 2.86875 20.0359 2.65313 19.4781C2.48906 19.0563 2.29219 18.4188 2.24063 17.2516C2.18438 15.9859 2.17031 15.6063 2.17031 12.4047C2.17031 9.19844 2.18438 8.81875 2.24063 7.55781C2.29219 6.38594 2.48906 5.75313 2.65313 5.33125C2.86875 4.77344 3.13125 4.37031 3.54844 3.95312C3.97031 3.53125 4.36875 3.27344 4.92656 3.05781C5.34844 2.89375 5.98594 2.69687 7.15313 2.64531C8.41406 2.58906 8.79375 2.575 12 2.575ZM12 0.414062C8.74219 0.414062 8.33438 0.428125 7.05469 0.484375C5.77969 0.540625 4.90313 0.746875 4.14375 1.04219C3.35156 1.35156 2.68125 1.75937 2.01563 2.42969C1.34531 3.09531 0.9375 3.76563 0.628125 4.55313C0.332812 5.31719 0.126563 6.18906 0.0703125 7.46406C0.0140625 8.74844 0 9.15625 0 12.4141C0 15.6719 0.0140625 16.0797 0.0703125 17.3594C0.126563 18.6344 0.332812 19.5109 0.628125 20.2703C0.9375 21.0625 1.34531 21.7328 2.01563 22.3984C2.68125 23.0641 3.35156 23.4766 4.13906 23.7812C4.90313 24.0766 5.775 24.2828 7.05 24.3391C8.32969 24.3953 8.7375 24.4094 11.9953 24.4094C15.2531 24.4094 15.6609 24.3953 16.9406 24.3391C18.2156 24.2828 19.0922 24.0766 19.8516 23.7812C20.6391 23.4766 21.3094 23.0641 21.975 22.3984C22.6406 21.7328 23.0531 21.0625 23.3578 20.275C23.6531 19.5109 23.8594 18.6391 23.9156 17.3641C23.9719 16.0844 23.9859 15.6766 23.9859 12.4188C23.9859 9.16094 23.9719 8.75313 23.9156 7.47344C23.8594 6.19844 23.6531 5.32188 23.3578 4.5625C23.0625 3.76562 22.6547 3.09531 21.9844 2.42969C21.3188 1.76406 20.6484 1.35156 19.8609 1.04688C19.0969 0.751562 18.225 0.545313 16.95 0.489063C15.6656 0.428125 15.2578 0.414062 12 0.414062Z" fill="#235CF3"/>
<path d="M12 6.25C8.59688 6.25 5.83594 9.01094 5.83594 12.4141C5.83594 15.8172 8.59688 18.5781 12 18.5781C15.4031 18.5781 18.1641 15.8172 18.1641 12.4141C18.1641 9.01094 15.4031 6.25 12 6.25ZM12 16.4125C9.79219 16.4125 8.00156 14.6219 8.00156 12.4141C8.00156 10.2063 9.79219 8.41562 12 8.41562C14.2078 8.41562 15.9984 10.2063 15.9984 12.4141C15.9984 14.6219 14.2078 16.4125 12 16.4125Z" fill="#235CF3"/>
<path d="M19.8469 6.00547C19.8469 6.80235 19.2 7.44454 18.4078 7.44454C17.6109 7.44454 16.9688 6.79766 16.9688 6.00547C16.9688 5.2086 17.6156 4.56641 18.4078 4.56641C19.2 4.56641 19.8469 5.21328 19.8469 6.00547Z" fill="#235CF3"/>
</g>
<defs>
<clipPath id="clip0_160_55170">
<rect width="24" height="24" fill="white" transform="translate(0 0.414062)"/>
</clipPath>
</defs>
</svg>
